<?xml version="1.0" encoding="UTF-8"?>
<svg width="146px" height="46px" viewBox="0 0 146 46" version="1.1" xmlns="http://www.w3.org/2000/svg" xmlns:xlink="http://www.w3.org/1999/xlink">
    <!-- Generator: Sketch 50.2 (55047) - http://www.bohemiancoding.com/sketch -->
    <title>pt-verified-neutral-sm</title>
    <desc>Created with Sketch.</desc>
    <defs>
        <rect id="path-1" x="0" y="0" width="140" height="40" rx="10"></rect>
        <filter x="-3.6%" y="-10.0%" width="107.1%" height="125.0%" filterUnits="objectBoundingBox" id="filter-2">
            <feOffset dx="0" dy="1" in="SourceAlpha" result="shadowOffsetOuter1"></feOffset>
            <feGaussianBlur stdDeviation="1.5" in="shadowOffsetOuter1" result="shadowBlurOuter1"></feGaussianBlur>
            <feComposite in="shadowBlurOuter1" in2="SourceAlpha" operator="out" result="shadowBlurOuter1"></feComposite>
            <feColorMatrix values="0 0 0 0 0   0 0 0 0 0   0 0 0 0 0  0 0 0 0.1 0" type="matrix" in="shadowBlurOuter1"></feColorMatrix>
        </filter>
        <polygon id="path-3" points="0.00684583541 0.0219611051 0.00684583541 16.5547787 12.1086855 16.5547787 12.1086855 0.0219611051 0.00684583541 0.0219611051"></polygon>
    </defs>
    <g id="pt-verified-neutral-sm" stroke="none" stroke-width="1" fill="none" fill-rule="evenodd">
        <g id="Group" transform="translate(3.000000, 1.000000)">
            <g id="Background" transform="translate(0.164489, 0.787292)">
                <g id="pop_up">
                    <use fill="black" fill-opacity="1" filter="url(#filter-2)" xlink:href="#path-1"></use>
                    <rect stroke="#DDDDDD" stroke-width="0.692041522" stroke-linejoin="square" fill="#F5F7F9" fill-rule="evenodd" x="0.346020761" y="0.346020761" width="139.307958" height="39.3079585" rx="10"></rect>
                </g>
                <g id="Group-2" transform="translate(34.835511, 15.212708)">
                    <path d="M31.9170972,5.29304701 C31.9170972,4.26788092 31.0568455,3.43389504 29.9995038,3.43389504 L28.508475,3.43389504 L28.508475,0.263777663 L26.3777663,0.263777663 L26.3777663,16.6179927 L28.508475,16.6179927 L28.508475,14.2198248 C28.5102556,14.2267297 28.5125927,14.2312611 28.5138168,14.2375187 L28.5138168,6.04935246 C28.5138168,5.3702959 28.770223,5.3178616 29.170969,5.3178616 C29.571715,5.3178616 29.8287889,5.3702959 29.8287889,6.04935246 L29.8287889,16.6179927 L31.9170972,16.6179927 L31.9170972,5.29304701" id="Fill-1" fill="#FFFFFF"></path>
                    <path d="M45.8642828,14.2472793 C45.8642828,14.9264832 45.6218647,14.9789206 45.2441021,14.9789206 C44.8667847,14.9789206 44.6250345,14.9264832 44.6250345,14.2472793 L44.6250345,6.3216874 C44.6250345,5.6425914 44.8667847,5.59036985 45.2441021,5.59036985 C45.6218647,5.59036985 45.8642828,5.6425914 45.8642828,6.3216874 L45.8642828,14.2472793 L45.8642828,14.2472793 Z M45.2382031,3.42910961 C43.7104572,3.42910961 42.4682037,4.63365803 42.4682037,6.11431172 L42.4682037,14.1967841 C42.4682037,15.6774378 43.7104572,16.8817704 45.2382031,16.8817704 C46.7652811,16.8817704 48.0075346,15.6774378 48.0075346,14.1967841 L48.0075346,6.11431172 C48.0075346,4.63365803 46.7652811,3.42910961 45.2382031,3.42910961 L45.2382031,3.42910961 Z" id="Fill-2" fill="#FFFFFF"></path>
                    <path d="M94.2193777,3.42910961 L92.3250757,3.42910961 L92.3250757,14.1986024 C92.3250757,14.3170626 92.3168396,14.4148598 92.3015917,14.498377 L92.3015917,14.5778914 L92.2838952,14.5778914 C92.1974162,14.900168 91.9749303,14.9321901 91.6666332,14.9321901 C91.3600056,14.9321901 91.1375197,14.900168 91.0504842,14.5778914 L91.0239951,14.5778914 L91.0239951,14.4388764 C91.0145348,14.368774 91.0098602,14.2899087 91.0098602,14.1986024 L91.0098602,3.42910961 L88.8930723,3.42910961 L88.8930723,14.7851697 C88.8930723,15.8127984 89.7528539,16.6490517 90.8104132,16.6490517 L92.3015917,16.6490517 L92.3015917,19.7833247 L94.4324032,19.7833247 L94.4324032,3.42910961 L94.2193777,3.42910961" id="Fill-3" fill="#FFFFFF"></path>
                    <path d="M79.2127252,14.0843156 C79.2127252,14.5712209 79.0874005,14.7355366 78.8772645,14.7896972 C78.777205,14.8401895 78.650656,14.8490364 78.5024033,14.8490364 C78.1257613,14.8490364 77.8833481,14.7966021 77.8833481,14.1174377 L77.8833481,6.19230605 C77.8833481,5.7055086 78.008005,5.54140866 78.2175845,5.48724813 C78.3176439,5.43643217 78.444193,5.4279089 78.5924457,5.4279089 C78.9702007,5.4279089 79.2127252,5.48012742 79.2127252,6.15918397 L79.2127252,14.0843156 L79.2127252,14.0843156 Z M81.0304903,0.263777663 L79.1126657,0.263777663 L79.1126657,3.43389504 L77.6214572,3.43389504 C76.5639881,3.43389504 75.7041892,4.26788092 75.7041892,5.29304701 L75.7041892,14.7591644 C75.7041892,15.7840069 76.5639881,16.6179927 77.6214572,16.6179927 L81.2435201,16.6179927 L81.2435201,0.263777663 L81.0304903,0.263777663 L81.0304903,0.263777663 Z" id="Fill-4" fill="#FFFFFF"></path>
                    <path d="M72.5401821,14.2472793 C72.5401821,14.9264832 72.2831082,14.9789206 71.8823622,14.9789206 C71.4822839,14.9789206 71.2250987,14.9264832 71.2250987,14.2472793 L71.2250987,6.3216874 C71.2250987,5.6425914 71.4817275,5.59036985 71.8823622,5.59036985 C72.2831082,5.59036985 72.5401821,5.6425914 72.5401821,6.3216874 L72.5401821,14.2472793 L72.5401821,14.2472793 Z M71.8794687,3.42910961 C70.3524941,3.42910961 69.1097476,4.63365803 69.1097476,6.11431172 L69.1097476,14.1967841 C69.1097476,15.6774378 70.3524941,16.8817704 71.8794687,16.8817704 C73.4069997,16.8817704 74.6490785,15.6774378 74.6490785,14.1967841 L74.6490785,6.11431172 C74.6490785,4.63365803 73.4069997,3.42910961 71.8794687,3.42910961 L71.8794687,3.42910961 Z" id="Fill-5" fill="#FFFFFF"></path>
                    <path d="M41.1074581,0.561054488 C40.7409663,0.225269408 40.2846427,0.0350998644 39.7880876,0.0109754994 L39.5666494,0 L39.5666494,16.6179927 L41.6768707,16.6179927 L41.6768707,1.88289582 C41.6768707,1.37400212 41.4694308,0.892058163 41.1074581,0.561054488" id="Fill-6" fill="#FFFFFF"></path>
                    <path d="M69.6875158,0.263777663 L64.3617497,0.263777663 L64.3617497,2.32932227 L66.0657055,2.32932227 L66.0657055,16.6179927 L68.1970135,16.6179927 L68.1970135,2.32932227 L69.9010806,2.32932227 L69.9010806,0.263777663 L69.6875158,0.263777663" id="Fill-7" fill="#FFFFFF"></path>
                    <path d="M36.3679888,14.2472793 C36.3679888,14.9264832 36.1254887,14.9789206 35.7483281,14.9789206 C35.3704997,14.9789206 35.1287786,14.9264832 35.1287786,14.2472793 L35.1287786,6.3216874 C35.1287786,5.6425914 35.3704997,5.59036985 35.7483281,5.59036985 C36.1254887,5.59036985 36.3679888,5.6425914 36.3679888,6.3216874 L36.3679888,14.2472793 L36.3679888,14.2472793 Z M35.7418733,3.42910961 C34.2149793,3.42910961 32.9722078,4.63365803 32.9722078,6.11431172 L32.9722078,14.1967841 C32.9722078,15.6774378 34.2149793,16.8817704 35.7418733,16.8817704 C37.2687673,16.8817704 38.5115387,15.6774378 38.5115387,14.1967841 L38.5115387,6.11431172 C38.5115387,4.63365803 37.2687673,3.42910961 35.7418733,3.42910961 L35.7418733,3.42910961 Z" id="Fill-8" fill="#FFFFFF"></path>
                    <g id="Group-12" transform="translate(0.000000, 0.263778)">
                        <mask id="mask-4" fill="white">
                            <use xlink:href="#path-3"></use>
                        </mask>
                        <g id="Clip-10"></g>
                        <path d="M12.1086855,6.9284582 L12.1086855,5.75867776 C12.1086855,4.27408542 10.835246,3.06633282 9.26971753,3.06633282 C7.70361858,3.06633282 6.4301791,4.27408542 6.4301791,5.75867776 L6.4301791,8.98241653 C6.4301791,10.0100448 7.3121509,10.8459732 8.39618893,10.8459732 L9.92486398,10.8459732 L9.92486398,12.0122917 C9.92726002,12.0568631 9.92965607,12.1038144 9.92965607,12.1555258 L9.92965607,14.1321334 C9.92965607,14.8133604 9.67088349,14.8659372 9.26857656,14.8659372 C8.86615553,14.8659372 8.60795344,14.8133604 8.60795344,14.1321334 L8.60795344,12.6929778 L6.4301791,12.6929778 L6.4301791,13.8626501 C6.4301791,15.3472424 7.70361858,16.5547787 9.26971753,16.5547787 C10.835246,16.5547787 12.1086855,15.3472424 12.1086855,13.8626501 L12.1086855,10.6385868 C12.1086855,9.61106668 11.2272842,8.77513831 10.1432461,8.77513831 L8.61457108,8.77513831 L8.61457108,6.01810007 L8.62426935,6.01810007 L8.62426935,5.98867436 C8.62426935,5.30798828 8.87756526,5.25530326 9.27222767,5.25530326 C9.66666189,5.25530326 9.9200719,5.30798828 9.9200719,5.98867436 L9.9200719,6.01810007 L9.92486398,6.01810007 L9.92486398,6.9284582 L12.1086855,6.9284582" id="Fill-9" fill="#477BE4" mask="url(#mask-4)"></path>
                        <path d="M3.49468488,6.62587095 L3.48875182,6.62587095 L3.48875182,6.63355193 C3.48875182,7.31445437 3.23534181,7.36713938 2.8407935,7.36713938 C2.44624519,7.36713938 2.19283518,7.31445437 2.19283518,6.63355193 L2.19283518,6.62587095 L2.18496247,6.62587095 L2.18496247,2.83925716 L2.19283518,2.83925716 L2.19283518,2.791224 C2.19283518,2.11021338 2.4456747,2.05785291 2.8407935,2.05785291 C3.23534181,2.05785291 3.48875182,2.11021338 3.48875182,2.791224 L3.48875182,2.83925716 L3.49468488,2.83925716 L3.49468488,6.62587095 L3.49468488,6.62587095 Z M3.71306703,0.0219611051 L0,0.0219611051 L0,16.420632 L2.18496247,16.420632 L2.18496247,9.25676807 L3.71306703,9.25676807 C4.79710507,9.25676807 5.67919096,8.42073151 5.67919096,7.39288689 L5.67919096,1.8857341 C5.67919096,0.85810584 4.79710507,0.0219611051 3.71306703,0.0219611051 L3.71306703,0.0219611051 Z" id="Fill-11" fill="#477BE4" mask="url(#mask-4)"></path>
                    </g>
                    <path d="M52.4711218,13.7762046 L52.4617725,13.7762046 L52.4617725,14.2253541 C52.4617725,14.9061623 52.2045563,14.9585072 51.8038733,14.9585072 C51.4030791,14.9585072 51.1465307,14.9061623 51.1465307,14.2253541 L51.1465307,6.2807172 C51.1465307,5.60001715 51.4030791,5.54767225 51.8038733,5.54767225 C52.2045563,5.54767225 52.4617725,5.60001715 52.4617725,6.2807172 L52.4617725,6.75311914 L52.4711218,6.75311914 L52.4711218,13.7762046 L52.4711218,13.7762046 Z M51.8320325,3.42910961 C50.3049851,3.42910961 49.0626453,4.63650321 49.0626453,6.12065427 L49.0626453,14.9161122 C49.0626453,15.943435 49.9224441,16.7794393 50.9799133,16.7794393 L52.4711218,16.7794393 L52.4711218,17.9762342 L49.431051,17.9762342 L49.431051,20.0471024 L52.6848194,20.0471024 C53.7422886,20.0471024 54.6019762,19.211098 54.6019762,18.1835589 L54.6019762,6.12065427 C54.6019762,4.63650321 53.3597476,3.42910961 51.8320325,3.42910961 L51.8320325,3.42910961 Z" id="Fill-13" fill="#FFFFFF"></path>
                    <path d="M22.5509311,14.9004803 C22.1549227,14.9004803 21.9006004,14.848043 21.9006004,14.1688391 L21.9006004,6.24357086 C21.9006004,5.56436697 22.1549227,5.51192962 22.5509311,5.51192962 C22.9474959,5.51192962 23.2018183,5.56436697 23.2018183,6.24357086 L23.2018183,7.28098872 L25.3226556,7.28098872 L25.3226556,6.11431172 C25.3226556,4.63365803 24.0804271,3.42910961 22.5527119,3.42910961 C21.0255532,3.42910961 19.7833247,4.63365803 19.7833247,6.11431172 L19.7833247,14.1967841 C19.7833247,15.6774378 21.0255532,16.8817704 22.5527119,16.8817704 C24.0804271,16.8817704 25.3226556,15.6774378 25.3226556,14.1967841 L25.3226556,13.030215 L23.2018183,13.030215 L23.2018183,14.1688391 C23.2018183,14.848043 22.9474959,14.9004803 22.5509311,14.9004803" id="Fill-14" fill="#FFFFFF"></path>
                    <path d="M85.7636481,14.05296 C85.7636481,14.2355753 85.743614,14.3716734 85.7071073,14.4748532 L85.7071073,14.5516984 L85.6736058,14.5516984 C85.5623049,14.7607562 85.3533933,14.7850402 85.0798158,14.7850402 C84.8061271,14.7850402 84.5972154,14.7607562 84.4865824,14.5516984 L84.4294851,14.5516984 L84.4294851,14.3927195 C84.4083379,14.3017356 84.3970966,14.190677 84.3970966,14.05296 L84.3970966,9.28942039 C84.3970966,9.15159548 84.4083379,9.04064481 84.4294851,8.94966094 L84.4294851,8.86795894 L84.4524131,8.86795894 C84.5506917,8.58669683 84.7749629,8.55755609 85.0798158,8.55755609 C85.4958583,8.55755609 85.7636481,8.60979357 85.7636481,9.28942039 L85.7636481,14.05296 L85.7636481,14.05296 Z M85.9208049,3.42910961 L82.6670365,3.42910961 L82.6670365,5.49551188 L85.7071073,5.49551188 L85.7071073,6.80166461 L84.2158988,6.80166461 C83.1584296,6.80166461 82.2986307,7.6359532 82.2986307,8.66116761 L82.2986307,14.7584897 C82.2986307,15.7837041 83.1584296,16.6179927 84.2158988,16.6179927 L87.8379617,16.6179927 L87.8379617,5.28893641 C87.8379617,4.26339821 86.9776063,3.42910961 85.9208049,3.42910961 L85.9208049,3.42910961 Z" id="Fill-15" fill="#FFFFFF"></path>
                    <path d="M18.2508716,3.42910961 L16.3567218,3.42910961 L16.3567218,14.1986024 C16.3567218,14.3170626 16.3484863,14.4148598 16.3337961,14.498377 L16.3337961,14.5778914 L16.316101,14.5778914 C16.2290725,14.900168 16.0066045,14.9321901 15.6988886,14.9321901 C15.3917292,14.9321901 15.1692612,14.900168 15.0827892,14.5778914 L15.0557458,14.5778914 L15.0557458,14.4388764 C15.0469539,14.368774 15.041612,14.2899087 15.041612,14.1986024 L15.041612,3.42910961 L12.9251055,3.42910961 L12.9251055,14.7851697 C12.9251055,15.8127984 13.7852632,16.6490517 14.8427374,16.6490517 L16.3337961,16.6490517 L16.3337961,19.7833247 L18.4644364,19.7833247 L18.4644364,3.42910961 L18.2508716,3.42910961" id="Fill-16" fill="#FFFFFF"></path>
                    <path d="M60.9835206,3.42910961 L59.0893708,3.42910961 L59.0893708,14.1986024 C59.0893708,14.3170626 59.0804677,14.4148598 59.0657774,14.498377 L59.0657774,14.5778914 L59.0481937,14.5778914 C58.9610539,14.900168 58.7386972,14.9321901 58.4309813,14.9321901 C58.1243783,14.9321901 57.9019103,14.900168 57.8148818,14.5778914 L57.7877271,14.5778914 L57.7877271,14.4388764 C57.7789352,14.368774 57.7742611,14.2899087 57.7742611,14.1986024 L57.7742611,3.42910961 L55.6570868,3.42910961 L55.6570868,14.7851697 C55.6570868,15.8127984 56.5173558,16.6490517 57.5747187,16.6490517 L59.0657774,16.6490517 L59.0657774,19.7833247 L61.1964177,19.7833247 L61.1964177,3.42910961 L60.9835206,3.42910961" id="Fill-17" fill="#FFFFFF"></path>
                    <path d="M31.9170972,5.29304701 C31.9170972,4.26788092 31.0568455,3.43389504 29.9995038,3.43389504 L28.508475,3.43389504 L28.508475,0.263777663 L26.3777663,0.263777663 L26.3777663,16.6179927 L28.508475,16.6179927 L28.508475,14.2198248 C28.5102556,14.2267297 28.5125927,14.2312611 28.5138168,14.2375187 L28.5138168,6.04935246 C28.5138168,5.3702959 28.770223,5.3178616 29.170969,5.3178616 C29.571715,5.3178616 29.8287889,5.3702959 29.8287889,6.04935246 L29.8287889,16.6179927 L31.9170972,16.6179927 L31.9170972,5.29304701" id="Fill-18" fill="#477BE4"></path>
                    <path d="M45.8642828,14.2472793 C45.8642828,14.9264832 45.6218647,14.9789206 45.2441021,14.9789206 C44.8667847,14.9789206 44.6250345,14.9264832 44.6250345,14.2472793 L44.6250345,6.3216874 C44.6250345,5.6425914 44.8667847,5.59036985 45.2441021,5.59036985 C45.6218647,5.59036985 45.8642828,5.6425914 45.8642828,6.3216874 L45.8642828,14.2472793 L45.8642828,14.2472793 Z M45.2382031,3.42910961 C43.7104572,3.42910961 42.4682037,4.63365803 42.4682037,6.11431172 L42.4682037,14.1967841 C42.4682037,15.6774378 43.7104572,16.8817704 45.2382031,16.8817704 C46.7652811,16.8817704 48.0075346,15.6774378 48.0075346,14.1967841 L48.0075346,6.11431172 C48.0075346,4.63365803 46.7652811,3.42910961 45.2382031,3.42910961 L45.2382031,3.42910961 Z" id="Fill-19" fill="#477BE4"></path>
                    <path d="M94.2193777,3.42910961 L92.3250757,3.42910961 L92.3250757,14.1986024 C92.3250757,14.3170626 92.3168396,14.4148598 92.3015917,14.498377 L92.3015917,14.5778914 L92.2838952,14.5778914 C92.1974162,14.900168 91.9749303,14.9321901 91.6666332,14.9321901 C91.3600056,14.9321901 91.1375197,14.900168 91.0504842,14.5778914 L91.0239951,14.5778914 L91.0239951,14.4388764 C91.0145348,14.368774 91.0098602,14.2899087 91.0098602,14.1986024 L91.0098602,3.42910961 L88.8930723,3.42910961 L88.8930723,14.7851697 C88.8930723,15.8127984 89.7528539,16.6490517 90.8104132,16.6490517 L92.3015917,16.6490517 L92.3015917,19.7833247 L94.4324032,19.7833247 L94.4324032,3.42910961 L94.2193777,3.42910961" id="Fill-20" fill="#477BE4"></path>
                    <path d="M79.2127252,14.0843156 C79.2127252,14.5712209 79.0874005,14.7355366 78.8772645,14.7896972 C78.777205,14.8401895 78.650656,14.8490364 78.5024033,14.8490364 C78.1257613,14.8490364 77.8833481,14.7966021 77.8833481,14.1174377 L77.8833481,6.19230605 C77.8833481,5.7055086 78.008005,5.54140866 78.2175845,5.48724813 C78.3176439,5.43643217 78.444193,5.4279089 78.5924457,5.4279089 C78.9702007,5.4279089 79.2127252,5.48012742 79.2127252,6.15918397 L79.2127252,14.0843156 L79.2127252,14.0843156 Z M81.0304903,0.263777663 L79.1126657,0.263777663 L79.1126657,3.43389504 L77.6214572,3.43389504 C76.5639881,3.43389504 75.7041892,4.26788092 75.7041892,5.29304701 L75.7041892,14.7591644 C75.7041892,15.7840069 76.5639881,16.6179927 77.6214572,16.6179927 L81.2435201,16.6179927 L81.2435201,0.263777663 L81.0304903,0.263777663 L81.0304903,0.263777663 Z" id="Fill-21" fill="#477BE4"></path>
                    <path d="M72.5401821,14.2472793 C72.5401821,14.9264832 72.2831082,14.9789206 71.8823622,14.9789206 C71.4822839,14.9789206 71.2250987,14.9264832 71.2250987,14.2472793 L71.2250987,6.3216874 C71.2250987,5.6425914 71.4817275,5.59036985 71.8823622,5.59036985 C72.2831082,5.59036985 72.5401821,5.6425914 72.5401821,6.3216874 L72.5401821,14.2472793 L72.5401821,14.2472793 Z M71.8794687,3.42910961 C70.3524941,3.42910961 69.1097476,4.63365803 69.1097476,6.11431172 L69.1097476,14.1967841 C69.1097476,15.6774378 70.3524941,16.8817704 71.8794687,16.8817704 C73.4069997,16.8817704 74.6490785,15.6774378 74.6490785,14.1967841 L74.6490785,6.11431172 C74.6490785,4.63365803 73.4069997,3.42910961 71.8794687,3.42910961 L71.8794687,3.42910961 Z" id="Fill-22" fill="#477BE4"></path>
                    <path d="M41.1074581,0.561054488 C40.7409663,0.225269408 40.2846427,0.0350998644 39.7880876,0.0109754994 L39.5666494,0 L39.5666494,16.6179927 L41.6768707,16.6179927 L41.6768707,1.88289582 C41.6768707,1.37400212 41.4694308,0.892058163 41.1074581,0.561054488" id="Fill-23" fill="#477BE4"></path>
                    <path d="M69.6875158,0.263777663 L64.3617497,0.263777663 L64.3617497,2.32932227 L66.0657055,2.32932227 L66.0657055,16.6179927 L68.1970135,16.6179927 L68.1970135,2.32932227 L69.9010806,2.32932227 L69.9010806,0.263777663 L69.6875158,0.263777663" id="Fill-24" fill="#477BE4"></path>
                    <path d="M36.3679888,14.2472793 C36.3679888,14.9264832 36.1254887,14.9789206 35.7483281,14.9789206 C35.3704997,14.9789206 35.1287786,14.9264832 35.1287786,14.2472793 L35.1287786,6.3216874 C35.1287786,5.6425914 35.3704997,5.59036985 35.7483281,5.59036985 C36.1254887,5.59036985 36.3679888,5.6425914 36.3679888,6.3216874 L36.3679888,14.2472793 L36.3679888,14.2472793 Z M35.7418733,3.42910961 C34.2149793,3.42910961 32.9722078,4.63365803 32.9722078,6.11431172 L32.9722078,14.1967841 C32.9722078,15.6774378 34.2149793,16.8817704 35.7418733,16.8817704 C37.2687673,16.8817704 38.5115387,15.6774378 38.5115387,14.1967841 L38.5115387,6.11431172 C38.5115387,4.63365803 37.2687673,3.42910961 35.7418733,3.42910961 L35.7418733,3.42910961 Z" id="Fill-25" fill="#477BE4"></path>
                    <path d="M52.4711218,13.7762046 L52.4617725,13.7762046 L52.4617725,14.2253541 C52.4617725,14.9061623 52.2045563,14.9585072 51.8038733,14.9585072 C51.4030791,14.9585072 51.1465307,14.9061623 51.1465307,14.2253541 L51.1465307,6.2807172 C51.1465307,5.60001715 51.4030791,5.54767225 51.8038733,5.54767225 C52.2045563,5.54767225 52.4617725,5.60001715 52.4617725,6.2807172 L52.4617725,6.75311914 L52.4711218,6.75311914 L52.4711218,13.7762046 L52.4711218,13.7762046 Z M51.8320325,3.42910961 C50.3049851,3.42910961 49.0626453,4.63650321 49.0626453,6.12065427 L49.0626453,14.9161122 C49.0626453,15.943435 49.9224441,16.7794393 50.9799133,16.7794393 L52.4711218,16.7794393 L52.4711218,17.9762342 L49.431051,17.9762342 L49.431051,20.0471024 L52.6848194,20.0471024 C53.7422886,20.0471024 54.6019762,19.211098 54.6019762,18.1835589 L54.6019762,6.12065427 C54.6019762,4.63650321 53.3597476,3.42910961 51.8320325,3.42910961 L51.8320325,3.42910961 Z" id="Fill-30" fill="#477BE4"></path>
                    <path d="M22.5509311,14.9004803 C22.1549227,14.9004803 21.9006004,14.848043 21.9006004,14.1688391 L21.9006004,6.24357086 C21.9006004,5.56436697 22.1549227,5.51192962 22.5509311,5.51192962 C22.9474959,5.51192962 23.2018183,5.56436697 23.2018183,6.24357086 L23.2018183,7.28098872 L25.3226556,7.28098872 L25.3226556,6.11431172 C25.3226556,4.63365803 24.0804271,3.42910961 22.5527119,3.42910961 C21.0255532,3.42910961 19.7833247,4.63365803 19.7833247,6.11431172 L19.7833247,14.1967841 C19.7833247,15.6774378 21.0255532,16.8817704 22.5527119,16.8817704 C24.0804271,16.8817704 25.3226556,15.6774378 25.3226556,14.1967841 L25.3226556,13.030215 L23.2018183,13.030215 L23.2018183,14.1688391 C23.2018183,14.848043 22.9474959,14.9004803 22.5509311,14.9004803" id="Fill-31" fill="#477BE4"></path>
                    <path d="M85.7636481,14.05296 C85.7636481,14.2355753 85.743614,14.3716734 85.7071073,14.4748532 L85.7071073,14.5516984 L85.6736058,14.5516984 C85.5623049,14.7607562 85.3533933,14.7850402 85.0798158,14.7850402 C84.8061271,14.7850402 84.5972154,14.7607562 84.4865824,14.5516984 L84.4294851,14.5516984 L84.4294851,14.3927195 C84.4083379,14.3017356 84.3970966,14.190677 84.3970966,14.05296 L84.3970966,9.28942039 C84.3970966,9.15159548 84.4083379,9.04064481 84.4294851,8.94966094 L84.4294851,8.86795894 L84.4524131,8.86795894 C84.5506917,8.58669683 84.7749629,8.55755609 85.0798158,8.55755609 C85.4958583,8.55755609 85.7636481,8.60979357 85.7636481,9.28942039 L85.7636481,14.05296 L85.7636481,14.05296 Z M85.9208049,3.42910961 L82.6670365,3.42910961 L82.6670365,5.49551188 L85.7071073,5.49551188 L85.7071073,6.80166461 L84.2158988,6.80166461 C83.1584296,6.80166461 82.2986307,7.6359532 82.2986307,8.66116761 L82.2986307,14.7584897 C82.2986307,15.7837041 83.1584296,16.6179927 84.2158988,16.6179927 L87.8379617,16.6179927 L87.8379617,5.28893641 C87.8379617,4.26339821 86.9776063,3.42910961 85.9208049,3.42910961 L85.9208049,3.42910961 Z" id="Fill-32" fill="#477BE4"></path>
                    <path d="M18.2508716,3.42910961 L16.3567218,3.42910961 L16.3567218,14.1986024 C16.3567218,14.3170626 16.3484863,14.4148598 16.3337961,14.498377 L16.3337961,14.5778914 L16.316101,14.5778914 C16.2290725,14.900168 16.0066045,14.9321901 15.6988886,14.9321901 C15.3917292,14.9321901 15.1692612,14.900168 15.0827892,14.5778914 L15.0557458,14.5778914 L15.0557458,14.4388764 C15.0469539,14.368774 15.041612,14.2899087 15.041612,14.1986024 L15.041612,3.42910961 L12.9251055,3.42910961 L12.9251055,14.7851697 C12.9251055,15.8127984 13.7852632,16.6490517 14.8427374,16.6490517 L16.3337961,16.6490517 L16.3337961,19.7833247 L18.4644364,19.7833247 L18.4644364,3.42910961 L18.2508716,3.42910961" id="Fill-33" fill="#477BE4"></path>
                    <path d="M60.9835206,3.42910961 L59.0893708,3.42910961 L59.0893708,14.1986024 C59.0893708,14.3170626 59.0804677,14.4148598 59.0657774,14.498377 L59.0657774,14.5778914 L59.0481937,14.5778914 C58.9610539,14.900168 58.7386972,14.9321901 58.4309813,14.9321901 C58.1243783,14.9321901 57.9019103,14.900168 57.8148818,14.5778914 L57.7877271,14.5778914 L57.7877271,14.4388764 C57.7789352,14.368774 57.7742611,14.2899087 57.7742611,14.1986024 L57.7742611,3.42910961 L55.6570868,3.42910961 L55.6570868,14.7851697 C55.6570868,15.8127984 56.5173558,16.6490517 57.5747187,16.6490517 L59.0657774,16.6490517 L59.0657774,19.7833247 L61.1964177,19.7833247 L61.1964177,3.42910961 L60.9835206,3.42910961" id="Fill-34" fill="#477BE4"></path>
                </g>
            </g>
            <path d="M37.808715,13 L35.450715,6.997 L36.647715,6.997 L38.465715,11.857 L40.283715,6.997 L41.480715,6.997 L39.122715,13 L37.808715,13 Z M43.4234292,13 L43.4234292,6.997 L47.5364292,6.997 L47.5364292,7.924 L44.4764292,7.924 L44.4764292,9.481 L47.4734292,9.481 L47.4734292,10.408 L44.4764292,10.408 L44.4764292,12.073 L47.5364292,12.073 L47.5364292,13 L43.4234292,13 Z M53.3311433,13 L51.9991433,10.759 L50.9551433,10.759 L50.9551433,13 L49.9021433,13 L49.9021433,6.997 L52.5391433,6.997 C53.7271433,6.997 54.5011433,7.771 54.5011433,8.878 C54.5011433,9.949 53.7991433,10.525 53.0791433,10.642 L54.5461433,13 L53.3311433,13 Z M53.4211433,8.878 C53.4211433,8.302 52.9891433,7.924 52.3951433,7.924 L50.9551433,7.924 L50.9551433,9.832 L52.3951433,9.832 C52.9891433,9.832 53.4211433,9.454 53.4211433,8.878 Z M56.8398575,13 L56.8398575,6.997 L57.8928575,6.997 L57.8928575,13 L56.8398575,13 Z M60.4565716,13 L60.4565716,6.997 L64.5695716,6.997 L64.5695716,7.924 L61.5095716,7.924 L61.5095716,9.481 L64.5065716,9.481 L64.5065716,10.408 L61.5095716,10.408 L61.5095716,13 L60.4565716,13 Z M66.8002858,13 L66.8002858,6.997 L67.8532858,6.997 L67.8532858,13 L66.8002858,13 Z M70.4169999,13 L70.4169999,6.997 L74.5299999,6.997 L74.5299999,7.924 L71.4699999,7.924 L71.4699999,9.481 L74.4669999,9.481 L74.4669999,10.408 L71.4699999,10.408 L71.4699999,12.073 L74.5299999,12.073 L74.5299999,13 L70.4169999,13 Z M76.8957141,13 L76.8957141,6.997 L79.1277141,6.997 C80.9997141,6.997 82.2687141,8.239 82.2687141,10.003 C82.2687141,11.767 80.9997141,13 79.1277141,13 L76.8957141,13 Z M77.9487141,12.073 L79.1277141,12.073 C80.4327141,12.073 81.1887141,11.137 81.1887141,10.003 C81.1887141,8.842 80.4687141,7.924 79.1277141,7.924 L77.9487141,7.924 L77.9487141,12.073 Z M88.1701424,13 L88.1701424,6.997 L91.1221424,6.997 C92.2201424,6.997 92.8321424,7.681 92.8321424,8.527 C92.8321424,9.283 92.3461424,9.787 91.7881424,9.904 C92.4271424,10.003 92.9491424,10.642 92.9491424,11.38 C92.9491424,12.307 92.3281424,13 91.2031424,13 L88.1701424,13 Z M89.2231424,9.481 L90.9061424,9.481 C91.4461424,9.481 91.7521424,9.157 91.7521424,8.707 C91.7521424,8.257 91.4461424,7.924 90.9061424,7.924 L89.2231424,7.924 L89.2231424,9.481 Z M89.2231424,12.073 L90.9511424,12.073 C91.5271424,12.073 91.8691424,11.758 91.8691424,11.236 C91.8691424,10.786 91.5541424,10.408 90.9511424,10.408 L89.2231424,10.408 L89.2231424,12.073 Z M96.7188565,13 L96.7188565,10.507 L94.3878565,6.997 L95.5938565,6.997 L97.2498565,9.571 L98.8878565,6.997 L100.093857,6.997 L97.7718565,10.507 L97.7718565,13 L96.7188565,13 Z" id="Verified-By" fill="#989BA3"></path>
            <g id="icon-verified" transform="translate(5.000000, 9.000000)">
                <g id="circle_1_" fill="#FFFFFF" stroke="#DDDDDD" stroke-width="0.68859853">
                    <circle id="circle" cx="12.4806728" cy="12.4806728" r="12.428301"></circle>
                </g>
                <g id="hand-drawn" transform="translate(5.436304, 6.342355)" fill="#FF5754" fill-rule="nonzero">
                    <path d="M0.253415618,9.99118732 C0.419627571,10.8170124 0.292989893,11.5456816 1.50000526,12.2864952 C1.75723805,12.4443735 2.04217281,12.6184445 2.5012344,12.7641784 C3.07901881,12.9463456 4.29790645,12.0476537 5.38224157,10.9748907 C7.49550781,8.88603907 8.48882211,7.77684265 8.48882211,7.77684265 C9.08639364,7.11699223 9.88579398,6.26687819 11.0651074,4.96741817 C11.8922097,4.05658169 12.8340774,3.14169706 13.0794379,2.72878453 C13.0794379,2.72878453 13.3327133,2.43731685 13.4791381,1.89081497 C13.5622441,1.58315465 13.5820312,1.20667557 13.5622441,0.870678117 C13.5464144,0.522536177 13.5028827,0.146057102 13.2535647,0.0610456976 C12.4304198,-0.214229324 10.9424271,1.36455389 10.78413,1.55076935 C10.64562,1.71674399 5.95211111,6.4692863 5.35058214,7.08460694 C5.31100788,7.12508856 4.87173343,7.52990477 4.82820173,7.56633822 C4.37309758,7.92662466 3.72407948,8.78078685 3.43122984,6.04018111 C3.30854959,4.87431043 3.14233765,4.03229272 2.43791556,3.96347397 C1.25068733,3.85012543 0.486903837,4.99980346 0.229671054,5.44914946 C-0.043391439,5.92683257 -0.00777459208,6.5016716 0.0634591016,8.06831033 C0.103033376,9.05606187 0.0990759486,9.23418101 0.253415618,9.99118732 Z" id="Shape"></path>
                </g>
            </g>
        </g>
    </g>
</svg>